<svg id="Layer_1" data-name="Layer 1" xmlns="http://www.w3.org/2000/svg" viewBox="0 0 403.49 184.08"><defs><style>.cls-1{fill:#273747;}.cls-2{fill:#b9b29e;}</style></defs><path class="cls-1" d="M9,136.51Q2,129.49,2,118T9,99.45q7-7,18.44-7A29.22,29.22,0,0,1,44,97.2l1.4,9.9H44.8a15.63,15.63,0,0,0-6.28-9.32A19,19,0,0,0,27.4,94.51q-9.18,0-14.66,6.4t-5.46,17q0,10.55,5.43,17A18.37,18.37,0,0,0,27,141.55a19.91,19.91,0,0,0,13.08-4.29q5.68-4.63,6.93-15.11h.55l-.84,11Q40.35,143.68,27,143.66,16,143.52,9,136.51" transform="translate(-2.04 -0.97)"/><path class="cls-1" d="M73.69,123.43H90.91l-8.4-22.57L73.6,123.43m34.49,18.51h.55v.71H92.9v-.71h.63a2.6,2.6,0,0,0,2.2-1,3,3,0,0,0,.74-1.8,5.33,5.33,0,0,0-.28-1.68l-4.42-11.88H72.85l-4.68,12a5.45,5.45,0,0,0-.29,1.65,3,3,0,0,0,.75,1.76,2.58,2.58,0,0,0,2.19,1h.64v.71H57.4V142H58a6.1,6.1,0,0,0,3.42-1.15,8.1,8.1,0,0,0,2.71-3.31L79.93,99.66c1.73-3.79,2.59-6.19,2.59-7.23h.64L101.9,137.5a7.54,7.54,0,0,0,2.66,3.3,6.16,6.16,0,0,0,3.57,1.14Z" transform="translate(-2.04 -0.97)"/><path class="cls-1" d="M177.82,141.94h1.12v.71H163.75V142h1a2.58,2.58,0,0,0,2-1,2.53,2.53,0,0,0,.71-2.07l-3.08-35.38-14.69,32.84a27.88,27.88,0,0,0-2.39,7.17h-.74l-17.92-39-3,34.39a2.84,2.84,0,0,0,2.61,3h1.16v.64H115.89v-.67H117a5.22,5.22,0,0,0,3.38-1.2,4.86,4.86,0,0,0,1.72-3.23l5.24-45.07h.7l19.52,42.45,19.1-42.4h.7l5.38,45.07a4.69,4.69,0,0,0,2.81,4,5.24,5.24,0,0,0,2.3.5" transform="translate(-2.04 -0.97)"/><path class="cls-1" d="M192.12,141.94a4.32,4.32,0,0,0,3.12-1.3,4.55,4.55,0,0,0,1.35-3.13V98.13a4.44,4.44,0,0,0-1.5-2.85,4.27,4.27,0,0,0-3-1.17h-.84l-.06-.7h20.49a31.13,31.13,0,0,0,4.72-.42,19.63,19.63,0,0,0,3.62-.85v8.91h-.71V99.76a4,4,0,0,0-1.16-2.89,4,4,0,0,0-2.76-1.27h-14.3v21.69H213a3.46,3.46,0,0,0,2.37-1.05,3.3,3.3,0,0,0,1-2.46v-1h.69V123.9h-.71v-1.06a3.51,3.51,0,0,0-3.32-3.45H201.14v21h10q5.18,0,7.92-2.32a17.12,17.12,0,0,0,4.54-6.93h.7l-4,11.41h-29v-.67h.92" transform="translate(-2.04 -0.97)"/><path class="cls-1" d="M238.78,141.94a4.29,4.29,0,0,0,3.11-1.3,4.57,4.57,0,0,0,1.36-3.13v-39a4.44,4.44,0,0,0-1.36-3.12,4.21,4.21,0,0,0-3.11-1.31h-.91v-.69h15.32v.69h-.91a4.47,4.47,0,0,0-4.47,4.43v41.91h10c3.45,0,6.08-.77,7.92-2.32a17.27,17.27,0,0,0,4.56-6.93H271l-4.06,11.41H237.87v-.7h.91" transform="translate(-2.04 -0.97)"/><path class="cls-1" d="M284.05,141.94a4.32,4.32,0,0,0,3.12-1.3,4.57,4.57,0,0,0,1.36-3.13v-39a4.49,4.49,0,0,0-1.37-3.12A4.22,4.22,0,0,0,284,94.11h-.91v-.69h15.32v.69h-.91a4.47,4.47,0,0,0-4.44,4.43v41.91h10c3.45,0,6.08-.77,7.92-2.32a17.23,17.23,0,0,0,4.54-6.93h.7l-4.06,11.41H283.14v-.69h.91" transform="translate(-2.04 -0.97)"/><path class="cls-1" d="M329.33,141.94a4.28,4.28,0,0,0,3.11-1.3,4.53,4.53,0,0,0,1.37-3.13v-39a4.42,4.42,0,0,0-1.37-3.09,4.35,4.35,0,0,0-3.11-1.27h-.91v-.7h15.33v.7h-.91a4.29,4.29,0,0,0-3.12,1.27,4.42,4.42,0,0,0-1.37,3.09v39a4.23,4.23,0,0,0,1.34,3.13,4.37,4.37,0,0,0,3.15,1.3h.91v.71H328.42v-.7h.91" transform="translate(-2.04 -0.97)"/><path class="cls-1" d="M370.55,123.43h17.21l-8.4-22.57-8.81,22.57M405,141.94h.56v.71H389.75v-.71h.64a2.61,2.61,0,0,0,2.2-1,3,3,0,0,0,.74-1.8,5.63,5.63,0,0,0-.28-1.68l-4.48-11.88H369.7l-4.69,12a5.77,5.77,0,0,0-.28,1.65,3,3,0,0,0,.74,1.76,2.64,2.64,0,0,0,2.2,1h.67v.71h-14.1V142h.62a6.22,6.22,0,0,0,3.44-1.13,8,8,0,0,0,2.73-3.3L376.8,99.67c1.73-3.79,2.59-6.19,2.59-7.23H380l18.74,45.07a7.57,7.57,0,0,0,2.65,3.3A6.29,6.29,0,0,0,405,141.94Z" transform="translate(-2.04 -0.97)"/><path class="cls-2" d="M203.59,42.55c2.19,1.34,4.22,2.65,7.75,2.66,6.63,0,7.54-6.23,6.44-10.26a34.6,34.6,0,0,1-1.58-8.24c-.06-4,2.39-5.38,4.34-4.82,1.65.47,2.84,2.6,2.84,2.6-2.15-6.81-11.18-7.21-10.78,1.08,0,0-2.75-2.5-4.81-2.09,2.32,2.85,1.72,16.34-3.87,16.67l-.33,2.4" transform="translate(-2.04 -0.97)"/><path class="cls-2" d="M205.71,42.55c-2.18,1.34-4.22,2.65-7.75,2.66-6.62,0-7.54-6.23-6.44-10.26a34.52,34.52,0,0,0,1.59-8.24c.07-4-2.38-5.38-4.34-4.82-1.65.47-2.84,2.6-2.84,2.6,2.15-6.79,11.19-7.21,10.78,1.11,0,0,2.75-2.5,4.81-2.09-2.31,2.85-1.72,16.34,3.87,16.67l.33,2.39" transform="translate(-2.04 -0.97)"/><path class="cls-2" d="M204.71,41.42a13.11,13.11,0,0,1-3.1-8.91,20.42,20.42,0,0,1,2.86-10.13s3.34,5.66,3.35,9.9c0,6.17-3.11,9.07-3.11,9.07" transform="translate(-2.04 -0.97)"/><path class="cls-2" d="M201.49,57.4a18.54,18.54,0,0,1,3.16,6.23,18.7,18.7,0,0,1,3.15-6.23L209,56.15c4-4,9.36-5.42,14.7-11.54,4.39-5,6.19-9.39,6.26-13.33s-1.83-8.37-6.26-13.33c-6.42-7.16-15.69-6.09-19-17-3.34,10.89-12.53,9.9-19,16.94-4.48,4.95-6.18,9.38-6.24,13.33s1.87,8.34,6.24,13.29c5.35,6.12,10.75,7.57,14.7,11.54m4.26-55c2.19,12.93,14,12.48,18.73,23.39a17.28,17.28,0,0,1,1.51,6.82,17.42,17.42,0,0,1-1.53,6.78c-4,9.31-11,11.71-15.29,17.37a28.3,28.3,0,0,1-2.47-2.55,22.16,22.16,0,0,0,4.34-12.14c-.17-.16-.32-.28-.41.12a27.51,27.51,0,0,1-4.95,10.89,27.51,27.51,0,0,1-5-10.89c-.08-.4-.23-.28-.4-.12a22,22,0,0,0,4.33,12.14,30.65,30.65,0,0,1-2.43,2.54c-4.33-5.66-11.32-8.06-15.31-17.36a17.68,17.68,0,0,1-1.52-6.79,17.63,17.63,0,0,1,1.52-6.78C190.56,13.66,202.37,14,204.55,1.11m0,62.37a18.33,18.33,0,0,0-2.48-6.71,29.8,29.8,0,0,0,2.48-2.67A28.52,28.52,0,0,0,207,56.77a18.17,18.17,0,0,0-2.49,6.71" transform="translate(-2.04 -0.97)"/><path class="cls-2" d="M245.58,60c2-1.17,13.06-4.13,20.53-2.72-2.24-.42-4.51-1.87-8.56-1.58a37.3,37.3,0,0,0-5.55,1c5.51-4,11.3-7.57,20,2.38a30.75,30.75,0,0,1,2.53,3.36c-1.45-.8-8.68-3.57-14.44-.43-5.33,2.9-12.34,2.35-14.54-2" transform="translate(-2.04 -0.97)"/><path class="cls-2" d="M218.61,62.06c2.42-.26,13.66-3.78,18.58-10-1.42,1.83-2.36,4.65-6.49,7.3A25.69,25.69,0,0,1,223.77,62c7-.07,16-.91,17.11-14.91a27.28,27.28,0,0,0,0-4.24c-.68,1.5-4.87,8.13-11.56,9-6.17.83-11.65,5.4-10.75,10.24" transform="translate(-2.04 -0.97)"/><path class="cls-2" d="M209,56.15a28.23,28.23,0,0,0,14.79,6.39c10.24,1.28,23.67-2,27.11-16.08,1.61-6.54-4.54-14-11.51-13.46,0,0,3.12,1.22,2,5.58-.7,2.62-5.3,4.51-8.33,2.49-4.82-3.2-2.55-12,6.42-12,12.82,0,19.86,11.88,14.49,23.58-4.36,9.54-18.48,15.68-34.31,11.33a29.73,29.73,0,0,1-11.75-6.54" transform="translate(-2.04 -0.97)"/><path class="cls-2" d="M163.8,60c-2.06-1.17-13.07-4.13-20.55-2.72,2.25-.42,4.52-1.87,8.56-1.58a37.07,37.07,0,0,1,5.55,1c-5.51-4-11.29-7.57-20,2.38a30.58,30.58,0,0,0-2.51,3.36c1.43-.8,8.66-3.57,14.42-.43,5.33,2.9,12.36,2.35,14.56-2" transform="translate(-2.04 -0.97)"/><path class="cls-2" d="M190.8,62.06c-2.41-.26-13.66-3.78-18.59-10,1.43,1.83,2.37,4.65,6.5,7.3A25.69,25.69,0,0,0,185.64,62c-7-.07-15.95-.91-17.1-14.91a25,25,0,0,1,0-4.24c.66,1.5,4.85,8.13,11.54,9,6.19.83,11.65,5.4,10.76,10.24" transform="translate(-2.04 -0.97)"/><path class="cls-2" d="M200.51,56.15a28.26,28.26,0,0,1-14.79,6.39c-10.25,1.28-23.67-2-27.12-16.08-1.6-6.54,4.55-14,11.51-13.46,0,0-3.12,1.22-2,5.58.7,2.62,5.29,4.51,8.32,2.49,4.84-3.2,2.56-12-6.42-12-12.82,0-19.8,11.88-14.48,23.58,4.32,9.54,18.41,15.63,34.24,11.33a29.7,29.7,0,0,0,11.76-6.54" transform="translate(-2.04 -0.97)"/><path class="cls-1" d="M405.27,171.09h.26V168.2a7.94,7.94,0,0,1-1,.24,10.81,10.81,0,0,1-2.13.18h-8.8a13.34,13.34,0,0,1-1.78-.14,9.26,9.26,0,0,1-1.35-.28v2.89h.26v-.38a1.24,1.24,0,0,1,.44-1,1.5,1.5,0,0,1,1.06-.44h4.95V183a1.4,1.4,0,0,1-.51,1,1.79,1.79,0,0,1-1.16.41h-.33v.22h5.7v-.22h-.34a1.83,1.83,0,0,1-1.16-.41,1.39,1.39,0,0,1-.5-1v-13.7h4.95a1.6,1.6,0,0,1,1,.43,1.2,1.2,0,0,1,.44,1v.39" transform="translate(-2.04 -0.97)"/><path class="cls-1" d="M384,168.89v-.22h-5.33v.22h.52a1.65,1.65,0,0,1,1.12.41,1.35,1.35,0,0,1,.5,1v11.36l-14.23-13.37h-.26l.05.38a17.29,17.29,0,0,1,.19,2.49V183a1.31,1.31,0,0,1-.48,1,1.77,1.77,0,0,1-1.12.4h-.49v.22h5.32v-.22h-.5a1.76,1.76,0,0,1-.78-.19,1.32,1.32,0,0,1-.82-1.2V171.7L381.93,185h.27l-.06-.42a16.26,16.26,0,0,1-.19-2.52V170.26a1.3,1.3,0,0,1,.51-1,1.61,1.61,0,0,1,1.11-.41h.48" transform="translate(-2.04 -0.97)"/><path class="cls-1" d="M345.37,184.49v.22h10.89l1.5-3.72h-.31a5.7,5.7,0,0,1-1.7,2.25,4.92,4.92,0,0,1-3,.76h-3.71v-6.81h4.42a1.24,1.24,0,0,1,.87.34,1,1,0,0,1,.35.76v.36H355V175h-.26v.32a1,1,0,0,1-.36.8,1.4,1.4,0,0,1-.89.35h-4.4v-7.08h5.32a1.52,1.52,0,0,1,1,.41,1.17,1.17,0,0,1,.43.93v.42h.27v-2.89a9,9,0,0,1-1.35.28,12.92,12.92,0,0,1-1.76.14h-7.63v.22h.32a1.85,1.85,0,0,1,1.13.38,1.51,1.51,0,0,1,.54.94v12.81a1.47,1.47,0,0,1-.5,1,1.81,1.81,0,0,1-1.17.44h-.34" transform="translate(-2.04 -0.97)"/><path class="cls-1" d="M337.41,184.34a1.55,1.55,0,0,1-1-1.3l-2-14.68h-.24l-7.14,13.78-7.23-13.78h-.27l-2,14.68a1.51,1.51,0,0,1-.63,1.06,2.08,2.08,0,0,1-1.27.4h-.42v.22h5.05v-.2h-.48a1,1,0,0,1-.72-.31.75.75,0,0,1-.26-.68l1.11-11.2,6.67,12.72h.27a8.73,8.73,0,0,1,.88-2.36L333.25,172l1.18,11.53a.78.78,0,0,1-.27.68,1,1,0,0,1-.75.31H333v.2h5.67v-.22h-.44a2.57,2.57,0,0,1-.86-.16" transform="translate(-2.04 -0.97)"/><path class="cls-1" d="M284.78,184.34a1.61,1.61,0,0,1-1-1.3l-2-14.68h-.23l-7.1,13.78-7.27-13.81h-.27l-2,14.68a1.53,1.53,0,0,1-.64,1.06,2.06,2.06,0,0,1-1.27.4h-.4v.22h5.05v-.2h-.42a1,1,0,0,1-.73-.31.8.8,0,0,1-.26-.68l1.13-11.17L274,185.05h.27a7.74,7.74,0,0,1,.88-2.36L280.63,172l1.19,11.53a.78.78,0,0,1-.27.68,1,1,0,0,1-.76.31h-.39v.2H286v-.22h-.42a2.57,2.57,0,0,1-.86-.16" transform="translate(-2.04 -0.97)"/><path class="cls-1" d="M240.63,173.23a2.83,2.83,0,0,0,1.24-1.38,7.82,7.82,0,0,0,.62-1.84,8.17,8.17,0,0,0,.15-1.21v-.47l-1.83.32v1.61a14.48,14.48,0,0,1-.46,2.85l.23.11" transform="translate(-2.04 -0.97)"/><path class="cls-1" d="M230.22,184.72a10.61,10.61,0,0,0,2.44.32,5.13,5.13,0,0,0,3.54-1.19,3.88,3.88,0,0,0,1.33-3,3.53,3.53,0,0,0-1.3-2.9l-5.14-4.16a2.56,2.56,0,0,1-1-2,2.49,2.49,0,0,1,.9-2,3.36,3.36,0,0,1,2.23-.78,3.4,3.4,0,0,1,2.18.65,2,2,0,0,1,.84,1.71h.24v-2.85h-1a13,13,0,0,0-2.25-.22,4.66,4.66,0,0,0-3.39,1.21,3.67,3.67,0,0,0-1.25,2.79,3.5,3.5,0,0,0,1.42,2.77l5,4.08a2.62,2.62,0,0,1,1,2.14,2.67,2.67,0,0,1-1,2.19,4,4,0,0,1-2.7.88,3.53,3.53,0,0,1-2.55-.94,3.06,3.06,0,0,1-1-2.32,4.17,4.17,0,0,1,0-.5h-.24a6.33,6.33,0,0,0-.31,3.2,4.32,4.32,0,0,0,2,1" transform="translate(-2.04 -0.97)"/><path class="cls-1" d="M208.46,184.49v.22h10.89l1.52-3.72h-.26a5.64,5.64,0,0,1-1.7,2.25,4.87,4.87,0,0,1-3,.76H212.2v-6.81h4.43a1.29,1.29,0,0,1,.88.34,1,1,0,0,1,.35.76v.36h.26V175h-.26v.32a1,1,0,0,1-.37.8,1.33,1.33,0,0,1-.89.35h-4.4v-7.08h5.32a1.5,1.5,0,0,1,1,.41,1.22,1.22,0,0,1,.44.93v.42h.25v-2.89a6.7,6.7,0,0,1-1.33.28,13,13,0,0,1-1.76.14h-7.63v.22h.3a1.83,1.83,0,0,1,1.12.38,1.48,1.48,0,0,1,.55.94v12.81a1.42,1.42,0,0,1-.51,1,1.71,1.71,0,0,1-1.16.44h-.33" transform="translate(-2.04 -0.97)"/><path class="cls-1" d="M202.48,168.67H196.7v.22h.37a1,1,0,0,1,.88.47.87.87,0,0,1,.19.48,1.06,1.06,0,0,1-.13.46l-4.18,6.43-4-6.41a.9.9,0,0,1-.14-.48,1,1,0,0,1,.16-.48,1,1,0,0,1,.89-.47h.35v-.22h-6.42v.22h.37a3,3,0,0,1,1.49.4,3.05,3.05,0,0,1,1.11.94l4.95,7.31v5.52a1.32,1.32,0,0,1-.5,1,1.76,1.76,0,0,1-1.16.42h-.34v.22h5.68v-.22H196a1.79,1.79,0,0,1-1.19-.44,1.27,1.27,0,0,1-.48-1v-5.46l5.13-7.34a3.94,3.94,0,0,1,1.16-1,3,3,0,0,1,1.48-.38h.36v-.22" transform="translate(-2.04 -0.97)"/><path class="cls-1" d="M180.13,173.23a2.74,2.74,0,0,0,1.24-1.38A7,7,0,0,0,182,170a8.17,8.17,0,0,0,.15-1.21v-.47l-1.82.32v1.61a14.49,14.49,0,0,1-.47,2.85l.23.11" transform="translate(-2.04 -0.97)"/><path class="cls-1" d="M160,171.09h.26V168.2a6.27,6.27,0,0,1-1,.24,10.78,10.78,0,0,1-2.12.18h-8.8a13.06,13.06,0,0,1-1.77-.14,9.12,9.12,0,0,1-1.36-.28v2.89h.26v-.38a1.24,1.24,0,0,1,.44-1,1.45,1.45,0,0,1,1-.44h5V183a1.32,1.32,0,0,1-.49,1,1.83,1.83,0,0,1-1.17.41h-.35v.22h5.66v-.22h-.34A1.83,1.83,0,0,1,154,184a1.44,1.44,0,0,1-.5-1v-13.7h4.95a1.54,1.54,0,0,1,1,.43,1.16,1.16,0,0,1,.44,1v.39" transform="translate(-2.04 -0.97)"/><path class="cls-1" d="M129,178.42l3.27-7.37,3.13,7.37H129m12.81,6a2.61,2.61,0,0,1-2.3-1.46l-6.93-14.68h-.23a7.89,7.89,0,0,1-1,2.36L125.45,183a2.71,2.71,0,0,1-1,1.08,2.64,2.64,0,0,1-1.28.37H123v.22h5.24v-.22H128a1,1,0,0,1-.83-.31.84.84,0,0,1-.26-.57A1.71,1.71,0,0,1,127,183l1.75-4h7l1.66,4a1.54,1.54,0,0,1,.1.56,1,1,0,0,1-.27.59,1,1,0,0,1-.82.31h-.23v.22H142v-.22Z" transform="translate(-2.04 -0.97)"/><path class="cls-1" d="M111.21,184.49v.22h5.67v-.22h-.34a1.8,1.8,0,0,1-1.17-.43,1.48,1.48,0,0,1-.51-1V170.34a1.46,1.46,0,0,1,.51-1,1.8,1.8,0,0,1,1.17-.43h.34v-.22h-5.7v.22h.33a1.9,1.9,0,0,1,.82.19,1.39,1.39,0,0,1,.85,1.23v6.1H102.54v-6.13a1.34,1.34,0,0,1,.52-1,1.69,1.69,0,0,1,1.16-.42h.37v-.22H98.85v.22h.34a1.69,1.69,0,0,1,1.15.42,1.36,1.36,0,0,1,.51,1V183a1.42,1.42,0,0,1-.51,1,1.74,1.74,0,0,1-1.15.44h-.34v.22h5.74v-.22h-.34a1.79,1.79,0,0,1-1.18-.44,1.35,1.35,0,0,1-.5-1v-5.94h10.66V183a1.33,1.33,0,0,1-.51,1,1.69,1.69,0,0,1-1.15.42h-.34" transform="translate(-2.04 -0.97)"/><path class="cls-1" d="M91.77,171.09H92V168.2a5.5,5.5,0,0,1-1,.24,10.78,10.78,0,0,1-2.12.18H80.11a13.06,13.06,0,0,1-1.77-.14A8.74,8.74,0,0,1,77,168.2v2.89h.29v-.38a1.22,1.22,0,0,1,.41-1,1.59,1.59,0,0,1,1.07-.44h4.95V183a1.36,1.36,0,0,1-.51,1,1.86,1.86,0,0,1-1.15.41H81.7v.22h5.71v-.22h-.33a1.83,1.83,0,0,1-1.17-.41,1.46,1.46,0,0,1-.51-1v-13.7h4.95a1.54,1.54,0,0,1,1,.43,1.23,1.23,0,0,1,.44,1v.39" transform="translate(-2.04 -0.97)"/><path class="cls-1" d="M51.18,169.4a3.22,3.22,0,0,1,2.32,1,3.82,3.82,0,0,1,.92,2.47v.52a2.86,2.86,0,0,1-.17.87c-.55,1.53-1.91,2.32-4.06,2.38H48.81v.22a2.38,2.38,0,0,1,1.66.79,7.14,7.14,0,0,1,.55.55c.18.19.8,1,1.85,2.3s1.71,2.14,2,2.37a6.54,6.54,0,0,0,.84.74,5.23,5.23,0,0,0,1.45.74,6.14,6.14,0,0,0,2.08.35h1.39v-.23a4.24,4.24,0,0,1-1.61-.32,3.44,3.44,0,0,1-.68-.37,5.61,5.61,0,0,1-.62-.47l-1-.88a43.41,43.41,0,0,1-3-3.49,11.56,11.56,0,0,0-1-1,3.63,3.63,0,0,0-.92-.62A4.24,4.24,0,0,0,55,176a4.44,4.44,0,0,0,1.29-3.18,3.72,3.72,0,0,0-1.36-3,5.5,5.5,0,0,0-3.73-1.16H44.24v.22h.37a1.71,1.71,0,0,1,1.16.44,1.35,1.35,0,0,1,.5,1V183a1.35,1.35,0,0,1-.5,1,1.83,1.83,0,0,1-1.16.41h-.34v.22H50v-.22h-.31a1.83,1.83,0,0,1-1.19-.43,1.41,1.41,0,0,1-.49-1V169.38h3.24" transform="translate(-2.04 -0.97)"/><path class="cls-1" d="M33.59,182.24a6,6,0,0,1-4.82,2.1,6,6,0,0,1-4.8-2.11,9.39,9.39,0,0,1,0-11.1,6,6,0,0,1,4.8-2.11,6.4,6.4,0,0,1,3.48,1,6.22,6.22,0,0,1,2.32,2.68,9.49,9.49,0,0,1,.82,4,8.15,8.15,0,0,1-1.81,5.55m1.29-11.58a8.34,8.34,0,0,0-6.1-2.31,8.2,8.2,0,0,0-6,2.31,8.9,8.9,0,0,0,0,12.06A8.25,8.25,0,0,0,28.81,185a8.34,8.34,0,0,0,6.1-2.32,9,9,0,0,0,0-12.06Z" transform="translate(-2.04 -0.97)"/><path class="cls-1" d="M12.78,168.28a6.89,6.89,0,0,1-1.35.28,12.92,12.92,0,0,1-1.76.14H2v.22h.34a1.9,1.9,0,0,1,1.15.39,1.16,1.16,0,0,1,.49.95v12.81a1.43,1.43,0,0,1-.52,1,1.73,1.73,0,0,1-1.15.43H2v.22H7.75v-.22H7.4a1.8,1.8,0,0,1-1.17-.43,1.31,1.31,0,0,1-.49-1v-5.94h4.43a1.29,1.29,0,0,1,.87.34,1,1,0,0,1,.35.77v.35h.26V175h-.26v.34a1,1,0,0,1-.36.78,1.32,1.32,0,0,1-.88.35H5.74v-7.08h5.49a1.3,1.3,0,0,1,.92.34,1,1,0,0,1,.36.78v.34h.27v-2.59" transform="translate(-2.04 -0.97)"/><path class="cls-1" d="M305.74,182.24a6.52,6.52,0,0,1-9.21.39,4.78,4.78,0,0,1-.39-.39,9.39,9.39,0,0,1,0-11.1,6,6,0,0,1,4.79-2.11,6.4,6.4,0,0,1,3.48,1,6.28,6.28,0,0,1,2.33,2.7,9.34,9.34,0,0,1,.81,4,8.15,8.15,0,0,1-1.81,5.55M307,170.65a9.21,9.21,0,0,0-12.18,0,9,9,0,0,0,0,12.06,9.18,9.18,0,0,0,12.18,0,9,9,0,0,0,0-12Z" transform="translate(-2.04 -0.97)"/></svg>