<?xml version="1.0" encoding="utf-8"?>
<!-- Generator: Adobe Illustrator 23.0.1, SVG Export Plug-In . SVG Version: 6.00 Build 0)  -->
<svg version="1.1" id="Layer_1" xmlns="http://www.w3.org/2000/svg" xmlns:xlink="http://www.w3.org/1999/xlink" x="0px" y="0px"
	 viewBox="0 0 242.4 29" style="enable-background:new 0 0 242.4 29;" xml:space="preserve">
<style type="text/css">
	.st0{fill:#0A2D21;}
</style>
<title>bakerboysbandAsset 1</title>
<g>
	<g>
		<polygon class="st0" points="24.2,0 20.9,17.6 18.1,0 13.3,0 13.3,29 15.7,29 15.7,12.9 18.7,29 21.1,29 24.2,12.9 24.2,29 29,29 
			29,0 		"/>
		<polygon class="st0" points="136.4,0 133.1,17.6 130.4,0 125.5,0 125.5,29 128,29 128,12.9 131,29 133.4,29 136.4,12.9 136.4,29 
			141.3,29 141.3,0 		"/>
		<polygon class="st0" points="0,0 0,29 9.7,29 9.7,26.6 4.8,26.6 4.8,14.5 9.7,14.5 9.7,12.1 4.8,12.1 4.8,2.4 9.7,2.4 9.7,0 		"/>
		<path class="st0" d="M94.9,0h-7.2v29h7.2c2.7,0,4.8-2.2,4.8-4.8V4.8C99.7,2.2,97.5,0,94.9,0z M94.9,26.6h-2.4V2.4h2.4V26.6z"/>
		<path class="st0" d="M53.2,0h-7.2v29h4.8V14.5h1L55,29h3l-3.3-14.8c1.9-0.6,3.3-2.5,3.3-4.6V4.8C58,2.2,55.8,0,53.2,0z M53.2,12.1
			h-1.6h-0.8V2.4h2.4v4.8V12.1z"/>
		<polygon class="st0" points="182.9,0 182.9,29 192.6,29 192.6,26.6 187.8,26.6 187.8,14.5 192.6,14.5 192.6,12.1 187.8,12.1 
			187.8,2.4 192.6,2.4 192.6,0 		"/>
		<rect x="159.4" class="st0" width="4.8" height="29"/>
		<polygon class="st0" points="32.6,0 32.6,29 42.3,29 42.3,26.6 37.5,26.6 37.5,14.5 42.3,14.5 42.3,12.1 37.5,12.1 37.5,2.4 
			42.3,2.4 42.3,0 		"/>
		<polygon class="st0" points="80.4,0 75.5,0 75.5,29 85.2,29 85.2,26.6 80.4,26.6 		"/>
		<path class="st0" d="M175.1,0h-7.2v29h4.8V14.5h1l3.2,14.5h3l-3.3-14.8c1.9-0.6,3.3-2.5,3.3-4.6V4.8C179.9,2.2,177.8,0,175.1,0z
			 M175.1,12.1h-1.6h-0.8V2.4h2.4v4.8V12.1z"/>
		<path class="st0" d="M152.1,0h-7.2v29h4.8V14.5h2.4c2.7,0,4.8-2.2,4.8-4.8V4.8C157,2.2,154.8,0,152.1,0z M152.1,12.1h-2.4V2.4h2.4
			V12.1z"/>
		<path class="st0" d="M64.6,0l-4.2,29h2.4l0.9-6h3.2l0.8,6h4.8L68.9,0H64.6z M65.4,11.2l1.2,9.4h-2.5L65.4,11.2z"/>
		<polygon class="st0" points="112.3,0 112.3,29 121.9,29 121.9,26 117.1,26 117.1,14.5 121.9,14.5 121.9,12.1 117.1,12.1 
			117.1,2.4 121.9,2.4 121.9,0 		"/>
	</g>
	<g>
		<path class="st0" d="M239.1,0h-4.8v19.3h4.8c1.8,0,3.2-1.4,3.2-3.2V3.2C242.4,1.4,240.9,0,239.1,0z M239.1,17.7h-1.6V1.6h1.6V17.7
			z"/>
		<path class="st0" d="M208.9,0h-4.8v19.3h4.8c1.8,0,3.2-1.4,3.2-3.2v-4c0-1.2-0.7-2.3-1.7-2.8c1-0.5,1.7-1.6,1.7-2.8V3.2
			C212.1,1.4,210.7,0,208.9,0z M208.9,0.8v7.2h-1.6V0.8H208.9z M208.9,18.5h-1.6V9.7h1.6V18.5z"/>
		<polygon class="st0" points="230.3,12.9 227,0 223.8,0 223.8,19.3 225.4,19.3 225.4,6.4 228.7,19.3 231.9,19.3 231.9,0 230.3,0 		
			"/>
		<path class="st0" d="M216.6,0l-2.8,19.3h1.6l0.6-4h2.1l0.5,4h3.2L219.4,0H216.6z M217.1,7.4l0.8,6.3h-1.7L217.1,7.4z"/>
	</g>
</g>
</svg>
