<?xml version="1.0" encoding="UTF-8" standalone="no"?>
<!DOCTYPE svg PUBLIC "-//W3C//DTD SVG 1.1//EN" "http://www.w3.org/Graphics/SVG/1.1/DTD/svg11.dtd">
<svg width="100%" height="100%" viewBox="0 0 400 125" version="1.1" xmlns="http://www.w3.org/2000/svg" xmlns:xlink="http://www.w3.org/1999/xlink" xml:space="preserve" style="color: black">
    <style>path { fill: currentColor }</style>
    <g id="Artboard1" transform="matrix(1,0,0,0.622581,0,0)">
        <g>
            <g transform="matrix(1.49227,0,0,2.3969,-92.406,75.8745)">
                <path d="M148.288,18.463C148.347,18.483 148.425,18.493 148.522,18.493L149.226,18.493C150.749,18.493 152.282,18.288 153.825,17.877C155.368,17.467 156.765,16.896 158.015,16.164C159.265,15.431 160.28,14.552 161.061,13.527C161.843,12.501 162.233,11.374 162.233,10.143C162.233,9.479 162.087,8.888 161.794,8.371C161.501,7.853 161.096,7.418 160.578,7.067C160.06,6.715 159.435,6.447 158.703,6.261C157.971,6.076 157.165,5.983 156.286,5.983C154.743,5.983 153.239,6.178 151.774,6.569C150.309,6.959 148.933,7.492 147.643,8.166C146.354,8.839 145.173,9.63 144.099,10.539C143.024,11.447 142.097,12.433 141.315,13.498C140.534,14.562 139.929,15.67 139.499,16.823C139.069,17.975 138.854,19.127 138.854,20.28C138.854,21.432 139.069,22.526 139.499,23.561C140.847,23.6 142.106,23.698 143.278,23.854C144.45,24.01 145.466,24.249 146.325,24.572C147.184,24.894 147.858,25.309 148.347,25.817C148.835,26.325 149.079,26.94 149.079,27.663C149.079,28.444 148.786,29.04 148.2,29.45C147.614,29.86 146.882,30.065 146.003,30.065C145.3,30.065 144.577,29.948 143.835,29.713C143.093,29.479 142.375,29.152 141.682,28.732C140.988,28.312 140.324,27.804 139.689,27.208C139.055,26.613 138.483,25.954 137.976,25.231C135.808,25.407 133.801,25.91 131.955,26.74C130.109,27.57 128.517,28.644 127.18,29.962C125.842,31.281 124.792,32.794 124.03,34.503C123.268,36.212 122.888,38.014 122.888,39.909C122.888,41.452 123.146,42.843 123.664,44.083C124.182,45.324 124.953,46.383 125.978,47.262C127.004,48.141 128.283,48.815 129.816,49.284C131.35,49.752 133.122,49.987 135.134,49.987C137.36,49.987 139.475,49.65 141.476,48.976C143.478,48.302 145.329,47.448 147.028,46.413C148.727,45.377 150.27,44.24 151.657,42.999C153.044,41.759 154.25,40.582 155.275,39.469C156.301,38.356 157.126,37.374 157.751,36.525C158.376,35.675 158.786,35.124 158.981,34.87L160.036,35.69C159.587,36.334 158.981,37.179 158.22,38.224C157.458,39.269 156.535,40.377 155.451,41.549C154.367,42.721 153.117,43.898 151.701,45.08C150.285,46.261 148.703,47.331 146.955,48.288C145.207,49.245 143.298,50.021 141.227,50.617C139.157,51.212 136.921,51.51 134.518,51.51C131.882,51.51 129.606,51.178 127.692,50.514C125.778,49.85 124.191,48.957 122.932,47.833C121.672,46.71 120.739,45.412 120.134,43.937C119.528,42.462 119.226,40.905 119.226,39.264C119.226,38.112 119.372,36.94 119.665,35.749C119.958,34.557 120.407,33.395 121.013,32.262C121.618,31.129 122.399,30.055 123.356,29.04C124.313,28.024 125.446,27.125 126.755,26.344C128.063,25.563 129.567,24.928 131.267,24.44C132.966,23.952 134.87,23.659 136.979,23.561C136.628,22.858 136.354,22.121 136.159,21.349C135.964,20.578 135.866,19.782 135.866,18.961C135.866,17.457 136.12,16.037 136.628,14.699C137.136,13.361 137.834,12.13 138.723,11.007C139.611,9.884 140.656,8.883 141.857,8.004C143.059,7.125 144.343,6.378 145.71,5.763C147.077,5.148 148.498,4.679 149.973,4.357C151.447,4.035 152.907,3.874 154.352,3.874C155.837,3.874 157.16,4.025 158.322,4.328C159.484,4.63 160.466,5.055 161.267,5.602C162.067,6.149 162.683,6.808 163.112,7.58C163.542,8.351 163.757,9.196 163.757,10.114C163.757,11.129 163.547,12.086 163.127,12.985C162.707,13.883 162.141,14.699 161.428,15.431C160.715,16.164 159.885,16.818 158.937,17.394C157.99,17.97 156.984,18.454 155.92,18.844C154.855,19.235 153.757,19.533 152.624,19.738C151.491,19.943 150.397,20.045 149.343,20.045C148.991,20.045 148.708,20.036 148.493,20.016C148.278,19.997 148.151,19.987 148.112,19.987L148.288,18.463ZM147.526,27.604C147.526,27.135 147.316,26.749 146.896,26.447C146.476,26.144 145.93,25.905 145.256,25.729C144.582,25.553 143.82,25.421 142.971,25.333C142.121,25.246 141.257,25.192 140.378,25.172C140.749,25.719 141.164,26.203 141.623,26.623C142.082,27.042 142.556,27.399 143.044,27.692C143.532,27.985 144.025,28.209 144.523,28.366C145.021,28.522 145.495,28.6 145.944,28.6C146.472,28.6 146.867,28.502 147.131,28.307C147.394,28.112 147.526,27.877 147.526,27.604Z"/>
                <path d="M168.386,22.799C168.288,22.975 168.161,23.166 168.005,23.371C167.849,23.576 167.697,23.81 167.551,24.074C167.404,24.337 167.277,24.645 167.17,24.997C167.062,25.348 167.009,25.768 167.009,26.256C167.009,26.666 167.111,27.223 167.316,27.926C167.521,28.629 167.741,29.435 167.976,30.343C168.21,31.251 168.43,32.238 168.635,33.302C168.84,34.367 168.942,35.465 168.942,36.598C168.942,38.258 168.718,39.723 168.268,40.993C167.819,42.262 167.224,43.346 166.481,44.245C168.005,43.424 169.499,42.248 170.964,40.714C172.429,39.181 173.903,37.233 175.388,34.87L176.384,35.749C175.544,37.135 174.592,38.507 173.527,39.865C172.463,41.222 171.296,42.443 170.026,43.527C168.757,44.611 167.39,45.49 165.925,46.164C164.46,46.837 162.907,47.174 161.267,47.174C159.802,47.174 158.566,46.828 157.56,46.134C156.555,45.441 155.934,44.401 155.7,43.014L156.755,42.809C156.755,42.926 156.809,43.117 156.916,43.38C157.023,43.644 157.194,43.903 157.429,44.157C157.663,44.411 157.98,44.635 158.381,44.831C158.781,45.026 159.274,45.124 159.86,45.124C160.642,45.124 161.335,44.943 161.94,44.582C162.546,44.22 163.073,43.747 163.522,43.161C163.972,42.575 164.352,41.906 164.665,41.154C164.977,40.402 165.226,39.625 165.412,38.825C165.598,38.024 165.729,37.243 165.808,36.481C165.886,35.719 165.925,35.026 165.925,34.401C165.925,33.776 165.9,33.082 165.851,32.321C165.803,31.559 165.749,30.832 165.69,30.138C165.632,29.445 165.578,28.839 165.529,28.322C165.48,27.804 165.456,27.467 165.456,27.311L165.456,27.252C165.202,27.526 164.899,27.926 164.548,28.454C164.196,28.981 163.82,29.557 163.42,30.182C163.019,30.807 162.619,31.442 162.219,32.086C161.818,32.731 161.457,33.317 161.135,33.844C160.812,34.372 160.549,34.806 160.344,35.148C160.139,35.49 160.036,35.67 160.036,35.69L158.981,34.87C159.001,34.85 159.245,34.43 159.714,33.61C160.183,32.79 160.803,31.749 161.574,30.49C162.346,29.23 163.22,27.833 164.196,26.3C165.173,24.767 166.179,23.278 167.214,21.832L168.386,22.799Z"/>
                <path d="M181.335,21.627C181.53,21.295 181.877,20.719 182.375,19.899C182.873,19.079 183.459,18.17 184.133,17.174C184.807,16.178 185.539,15.177 186.33,14.171C187.121,13.166 187.897,12.311 188.659,11.608L189.977,12.399C189.138,13.786 188.278,15.255 187.399,16.808C186.52,18.361 185.651,19.967 184.792,21.627L194.343,21.627L193.757,23.151L184.001,23.151C183.122,24.909 182.297,26.657 181.525,28.395C180.754,30.133 180.075,31.793 179.489,33.375C178.903,34.957 178.444,36.437 178.112,37.814C177.78,39.191 177.614,40.387 177.614,41.403C177.614,42.672 177.907,43.585 178.493,44.142C179.079,44.699 179.802,44.977 180.661,44.977C181.423,44.977 182.204,44.748 183.005,44.289C183.806,43.83 184.592,43.249 185.363,42.545C186.135,41.842 186.867,41.071 187.56,40.231C188.254,39.391 188.869,38.6 189.406,37.858C189.943,37.116 190.388,36.466 190.739,35.91C191.091,35.353 191.306,35.006 191.384,34.87L192.468,35.69C191.784,36.823 191.013,38.024 190.153,39.293C189.294,40.563 188.342,41.74 187.297,42.824C186.252,43.908 185.114,44.806 183.884,45.519C182.653,46.232 181.325,46.588 179.899,46.588C179.02,46.588 178.254,46.432 177.6,46.12C176.945,45.807 176.393,45.373 175.944,44.816C175.495,44.259 175.158,43.6 174.934,42.838C174.709,42.077 174.597,41.247 174.597,40.348C174.597,39.762 174.689,38.932 174.875,37.858C175.06,36.784 175.378,35.509 175.827,34.035C176.276,32.56 176.877,30.905 177.629,29.069C178.381,27.233 179.333,25.26 180.485,23.151L175.622,23.151L176.208,21.627L181.335,21.627Z"/>
                <path d="M214.675,26.315C214.421,26.823 214.064,27.487 213.605,28.307C213.146,29.127 212.653,30.031 212.126,31.017C211.599,32.003 211.066,33.034 210.529,34.108C209.992,35.182 209.504,36.232 209.064,37.257C208.625,38.283 208.264,39.249 207.98,40.158C207.697,41.066 207.556,41.832 207.556,42.457C207.556,43.082 207.678,43.488 207.922,43.673C208.166,43.859 208.483,43.952 208.874,43.952C209.44,43.952 210.021,43.786 210.617,43.454C211.213,43.122 211.799,42.692 212.375,42.165C212.951,41.637 213.513,41.041 214.059,40.377C214.606,39.713 215.119,39.044 215.598,38.371C216.076,37.697 216.511,37.052 216.901,36.437C217.292,35.822 217.624,35.299 217.897,34.87L218.952,35.69C218.62,36.315 218.229,36.989 217.78,37.711C217.331,38.434 216.838,39.162 216.301,39.894C215.764,40.626 215.183,41.334 214.558,42.018C213.933,42.702 213.273,43.307 212.58,43.834C211.887,44.362 211.159,44.782 210.397,45.094C209.636,45.407 208.854,45.563 208.054,45.563C206.882,45.563 206.022,45.211 205.476,44.508C204.929,43.805 204.655,42.897 204.655,41.784C204.655,41.706 204.66,41.535 204.67,41.271C204.68,41.007 204.704,40.797 204.743,40.641C203.767,41.872 202.834,42.887 201.945,43.688C201.057,44.489 200.197,45.124 199.367,45.592C198.537,46.061 197.736,46.388 196.965,46.574C196.193,46.759 195.456,46.852 194.753,46.852C194.011,46.852 193.312,46.73 192.658,46.486C192.004,46.242 191.428,45.885 190.93,45.416C190.432,44.948 190.041,44.372 189.758,43.688C189.475,43.004 189.333,42.213 189.333,41.315C189.333,40.202 189.582,38.927 190.08,37.492C190.578,36.056 191.462,34.508 192.731,32.848C193.806,31.422 194.924,30.221 196.086,29.245C197.248,28.268 198.391,27.482 199.514,26.886C200.637,26.291 201.706,25.866 202.722,25.612C203.737,25.358 204.645,25.231 205.446,25.231C207.243,25.231 208.601,25.529 209.518,26.124C210.436,26.72 210.993,27.633 211.188,28.864C211.579,28.375 211.989,27.887 212.419,27.399C212.849,26.911 213.288,26.413 213.737,25.905L214.675,26.315ZM205.681,37.448C205.934,37.038 206.247,36.515 206.618,35.88C206.989,35.246 207.38,34.591 207.79,33.917C208.2,33.244 208.601,32.594 208.991,31.969C209.382,31.344 209.724,30.817 210.017,30.387C210.017,30.211 209.992,29.928 209.943,29.538C209.894,29.147 209.763,28.751 209.548,28.351C209.333,27.951 208.991,27.604 208.522,27.311C208.054,27.018 207.399,26.872 206.559,26.872C205.954,26.872 205.275,26.964 204.523,27.15C203.771,27.335 202.971,27.648 202.121,28.087C201.271,28.527 200.397,29.108 199.499,29.831C198.601,30.553 197.702,31.452 196.804,32.526C195.456,34.147 194.416,35.773 193.684,37.404C192.951,39.035 192.585,40.504 192.585,41.813C192.585,42.926 192.839,43.786 193.347,44.391C193.854,44.997 194.577,45.299 195.515,45.299C196.589,45.299 197.595,45.06 198.532,44.582C199.47,44.103 200.349,43.483 201.169,42.721C201.989,41.959 202.77,41.115 203.513,40.187C204.255,39.259 204.977,38.346 205.681,37.448Z"/>
                <path d="M223.845,21.627C224.04,21.295 224.387,20.719 224.885,19.899C225.383,19.079 225.969,18.17 226.642,17.174C227.316,16.178 228.049,15.177 228.84,14.171C229.631,13.166 230.407,12.311 231.169,11.608L232.487,12.399C231.647,13.786 230.788,15.255 229.909,16.808C229.03,18.361 228.161,19.967 227.302,21.627L236.852,21.627L236.267,23.151L226.511,23.151C225.632,24.909 224.807,26.657 224.035,28.395C223.264,30.133 222.585,31.793 221.999,33.375C221.413,34.957 220.954,36.437 220.622,37.814C220.29,39.191 220.124,40.387 220.124,41.403C220.124,42.672 220.417,43.585 221.003,44.142C221.589,44.699 222.311,44.977 223.171,44.977C223.933,44.977 224.714,44.748 225.515,44.289C226.315,43.83 227.101,43.249 227.873,42.545C228.644,41.842 229.377,41.071 230.07,40.231C230.764,39.391 231.379,38.6 231.916,37.858C232.453,37.116 232.897,36.466 233.249,35.91C233.601,35.353 233.815,35.006 233.893,34.87L234.977,35.69C234.294,36.823 233.522,38.024 232.663,39.293C231.804,40.563 230.851,41.74 229.807,42.824C228.762,43.908 227.624,44.806 226.393,45.519C225.163,46.232 223.835,46.588 222.409,46.588C221.53,46.588 220.764,46.432 220.109,46.12C219.455,45.807 218.903,45.373 218.454,44.816C218.005,44.259 217.668,43.6 217.443,42.838C217.219,42.077 217.106,41.247 217.106,40.348C217.106,39.762 217.199,38.932 217.385,37.858C217.57,36.784 217.888,35.509 218.337,34.035C218.786,32.56 219.387,30.905 220.139,29.069C220.891,27.233 221.843,25.26 222.995,23.151L218.132,23.151L218.718,21.627L223.845,21.627Z"/>
                <path d="M236.12,39.118C236.081,39.352 236.052,39.586 236.032,39.821C236.013,40.055 236.003,40.29 236.003,40.524C236.003,41.227 236.105,41.896 236.31,42.531C236.516,43.166 236.818,43.722 237.219,44.201C237.619,44.679 238.117,45.055 238.713,45.329C239.309,45.602 239.987,45.739 240.749,45.739C243.308,45.739 245.778,44.87 248.161,43.131C250.544,41.393 252.917,38.639 255.28,34.87L256.276,35.749C254.987,37.897 253.679,39.708 252.351,41.183C251.022,42.658 249.699,43.854 248.381,44.772C247.062,45.69 245.768,46.354 244.499,46.764C243.229,47.174 242.018,47.379 240.866,47.379C240.026,47.379 239.138,47.262 238.2,47.028C237.263,46.793 236.398,46.403 235.607,45.856C234.816,45.309 234.162,44.577 233.644,43.659C233.127,42.741 232.868,41.598 232.868,40.231C232.868,38.766 233.117,37.355 233.615,35.998C234.113,34.64 234.763,33.375 235.563,32.204C236.364,31.032 237.282,29.962 238.317,28.996C239.352,28.029 240.402,27.204 241.467,26.52C242.531,25.836 243.571,25.304 244.587,24.923C245.602,24.542 246.501,24.352 247.282,24.352C247.79,24.352 248.308,24.43 248.835,24.586C249.362,24.743 249.836,24.987 250.256,25.319C250.676,25.651 251.017,26.09 251.281,26.637C251.545,27.184 251.677,27.838 251.677,28.6C251.677,29.635 251.437,30.607 250.959,31.515C250.48,32.423 249.841,33.263 249.04,34.035C248.239,34.806 247.311,35.499 246.257,36.115C245.202,36.73 244.099,37.252 242.946,37.682C241.794,38.112 240.632,38.454 239.46,38.707C238.288,38.961 237.175,39.098 236.12,39.118ZM236.354,37.858C237.663,37.721 238.893,37.448 240.046,37.038C241.198,36.627 242.253,36.124 243.21,35.529C244.167,34.933 245.021,34.284 245.773,33.581C246.525,32.877 247.155,32.165 247.663,31.442C248.171,30.719 248.561,30.026 248.835,29.362C249.108,28.698 249.245,28.102 249.245,27.575C249.245,27.047 249.103,26.627 248.82,26.315C248.537,26.002 248.2,25.846 247.809,25.846C246.95,25.846 245.983,26.154 244.909,26.769C243.835,27.384 242.761,28.234 241.686,29.318C240.612,30.402 239.601,31.676 238.654,33.141C237.707,34.606 236.94,36.178 236.354,37.858Z"/>
                <path d="M264.684,22.799C264.587,22.975 264.46,23.166 264.304,23.371C264.147,23.576 263.996,23.81 263.85,24.074C263.703,24.337 263.576,24.645 263.469,24.997C263.361,25.348 263.308,25.768 263.308,26.256C263.308,26.666 263.41,27.223 263.615,27.926C263.82,28.629 264.04,29.435 264.274,30.343C264.509,31.251 264.728,32.238 264.934,33.302C265.139,34.367 265.241,35.465 265.241,36.598C265.241,38.258 265.017,39.723 264.567,40.993C264.118,42.262 263.522,43.346 262.78,44.245C264.304,43.424 265.798,42.248 267.263,40.714C268.727,39.181 270.202,37.233 271.686,34.87L272.683,35.749C271.843,37.135 270.891,38.507 269.826,39.865C268.762,41.222 267.595,42.443 266.325,43.527C265.056,44.611 263.688,45.49 262.224,46.164C260.759,46.837 259.206,47.174 257.565,47.174C256.101,47.174 254.865,46.828 253.859,46.134C252.853,45.441 252.233,44.401 251.999,43.014L253.054,42.809C253.054,42.926 253.107,43.117 253.215,43.38C253.322,43.644 253.493,43.903 253.727,44.157C253.962,44.411 254.279,44.635 254.68,44.831C255.08,45.026 255.573,45.124 256.159,45.124C256.94,45.124 257.634,44.943 258.239,44.582C258.845,44.22 259.372,43.747 259.821,43.161C260.27,42.575 260.651,41.906 260.964,41.154C261.276,40.402 261.525,39.625 261.711,38.825C261.896,38.024 262.028,37.243 262.106,36.481C262.184,35.719 262.224,35.026 262.224,34.401C262.224,33.776 262.199,33.082 262.15,32.321C262.101,31.559 262.048,30.832 261.989,30.138C261.931,29.445 261.877,28.839 261.828,28.322C261.779,27.804 261.755,27.467 261.755,27.311L261.755,27.252C261.501,27.526 261.198,27.926 260.847,28.454C260.495,28.981 260.119,29.557 259.719,30.182C259.318,30.807 258.918,31.442 258.517,32.086C258.117,32.731 257.756,33.317 257.434,33.844C257.111,34.372 256.848,34.806 256.642,35.148C256.437,35.49 256.335,35.67 256.335,35.69L255.28,34.87C255.3,34.85 255.544,34.43 256.013,33.61C256.481,32.79 257.101,31.749 257.873,30.49C258.644,29.23 259.518,27.833 260.495,26.3C261.472,24.767 262.477,23.278 263.513,21.832L264.684,22.799Z"/>
            </g>
            <g transform="matrix(1.49227,0,0,2.3969,-98.1326,-54.0438)">
                <path d="M112.217,33.339C111.925,35.805 111.541,38.164 111.066,40.415C110.59,42.666 110.115,44.669 109.639,46.426C109.098,48.47 108.525,50.375 107.92,52.139C107.425,53.536 107.017,54.749 106.698,55.78C106.378,56.811 106.129,57.688 105.951,58.41C105.773,59.132 105.659,59.727 105.611,60.193C105.562,60.66 105.563,61.035 105.613,61.317C105.665,61.613 105.769,61.831 105.924,61.971C106.08,62.11 106.253,62.207 106.445,62.261C106.636,62.314 106.822,62.336 107.002,62.326C107.182,62.316 107.328,62.301 107.441,62.281C107.935,62.194 108.499,61.953 109.135,61.557C109.77,61.161 110.442,60.643 111.151,60.001C111.86,59.36 112.588,58.606 113.337,57.739C114.086,56.873 114.812,55.919 115.516,54.879C116.22,53.839 116.885,52.728 117.514,51.549C118.142,50.369 118.692,49.141 119.165,47.865C119.918,45.783 120.477,43.881 120.842,42.159C120.291,41.427 119.841,40.652 119.493,39.833C119.145,39.015 118.904,38.224 118.77,37.463C118.576,36.363 118.593,35.451 118.822,34.727C119.05,34.003 119.475,33.586 120.095,33.476C120.434,33.417 120.735,33.451 120.997,33.579C121.26,33.707 121.485,33.893 121.674,34.136C121.862,34.379 122.016,34.654 122.135,34.96C122.255,35.266 122.342,35.574 122.397,35.885C122.513,36.548 122.553,37.326 122.514,38.22C122.475,39.114 122.364,40.09 122.18,41.148C121.996,42.206 121.74,43.334 121.414,44.534C121.087,45.733 120.687,46.971 120.214,48.247C119.741,49.523 119.186,50.766 118.549,51.977C117.912,53.187 117.227,54.337 116.496,55.426C115.765,56.515 115.005,57.525 114.216,58.457C113.428,59.389 112.648,60.203 111.877,60.899C111.105,61.595 110.354,62.164 109.625,62.605C108.896,63.046 108.235,63.319 107.642,63.424C106.528,63.62 105.609,63.521 104.885,63.125C104.16,62.729 103.7,61.974 103.503,60.86C103.396,60.253 103.37,59.632 103.425,58.997C103.481,58.362 103.605,57.664 103.798,56.903C103.991,56.142 104.246,55.3 104.563,54.379C104.881,53.457 105.249,52.414 105.669,51.249C104.59,53.374 103.39,55.458 102.071,57.502C100.752,59.545 99.29,61.421 97.686,63.13C96.963,63.897 96.293,64.55 95.675,65.088C95.058,65.626 94.486,66.072 93.959,66.427C93.433,66.782 92.946,67.053 92.499,67.241C92.052,67.429 91.639,67.556 91.258,67.624C90.708,67.721 90.218,67.727 89.789,67.643C89.359,67.559 88.991,67.409 88.684,67.194C88.377,66.979 88.132,66.702 87.948,66.364C87.765,66.025 87.636,65.645 87.561,65.221C87.437,64.516 87.425,63.827 87.524,63.155C87.624,62.483 87.82,61.78 88.112,61.045C88.448,60.229 88.858,59.32 89.343,58.319C89.828,57.317 90.334,56.268 90.861,55.171C91.387,54.075 91.903,52.958 92.408,51.822C92.913,50.686 93.348,49.569 93.715,48.472C94.081,47.374 94.347,46.324 94.511,45.321C94.676,44.317 94.685,43.399 94.538,42.567C94.307,41.255 93.838,40.102 93.131,39.106C92.425,38.111 91.524,37.31 90.428,36.704C89.332,36.097 88.066,35.702 86.63,35.519C85.194,35.336 83.63,35.394 81.937,35.693C79.61,36.103 77.533,36.819 75.706,37.839C73.879,38.86 72.369,40.09 71.175,41.529C69.982,42.969 69.137,44.565 68.639,46.318C68.141,48.071 68.056,49.879 68.385,51.741C68.586,52.883 68.95,53.892 69.475,54.766C70,55.641 70.65,56.359 71.426,56.92C72.201,57.481 73.09,57.866 74.094,58.075C75.098,58.283 76.179,58.285 77.335,58.081C78.675,57.845 79.875,57.389 80.934,56.715C81.993,56.041 82.919,55.212 83.713,54.229C84.507,53.245 85.173,52.135 85.711,50.898C86.249,49.662 86.66,48.364 86.944,47.005L87.955,47.175C87.187,50.816 85.828,53.706 83.879,55.847C81.929,57.987 79.403,59.331 76.3,59.878C74.988,60.109 73.757,60.098 72.606,59.842C71.456,59.587 70.43,59.128 69.528,58.466C68.625,57.803 67.868,56.955 67.257,55.921C66.645,54.887 66.223,53.708 65.989,52.382C65.673,50.59 65.685,48.93 66.026,47.401C66.367,45.872 66.933,44.481 67.723,43.229C68.513,41.977 69.465,40.86 70.579,39.878C71.693,38.897 72.863,38.05 74.09,37.339C75.317,36.628 76.539,36.052 77.756,35.612C78.973,35.172 80.082,34.864 81.084,34.687C82.974,34.354 84.763,34.274 86.452,34.449C88.141,34.624 89.654,35.062 90.993,35.764C92.331,36.466 93.45,37.429 94.349,38.652C95.248,39.875 95.854,41.368 96.165,43.131C96.391,44.414 96.399,45.878 96.187,47.523C95.975,49.167 95.428,50.991 94.545,52.994C93.736,54.838 92.987,56.447 92.299,57.819C91.61,59.191 91.022,60.375 90.536,61.37C90.05,62.364 89.683,63.189 89.435,63.844C89.186,64.498 89.097,65.023 89.167,65.418C89.239,65.827 89.446,66.132 89.787,66.334C90.128,66.536 90.559,66.591 91.081,66.498C91.829,66.367 92.69,65.953 93.665,65.257C94.641,64.561 95.704,63.603 96.856,62.382C97.996,61.177 99.059,59.884 100.044,58.503C101.029,57.122 101.943,55.706 102.785,54.256C103.628,52.806 104.405,51.341 105.119,49.863C105.833,48.384 106.48,46.943 107.061,45.539C107.643,44.135 108.161,42.785 108.616,41.49C109.071,40.196 109.465,39.006 109.797,37.922C110.13,36.838 110.404,35.881 110.621,35.05C110.838,34.219 111,33.569 111.106,33.099L112.217,33.339ZM121.156,40.598C121.321,39.638 121.409,38.779 121.421,38.02C121.432,37.262 121.392,36.622 121.3,36.1C121.283,36.001 121.254,35.857 121.213,35.668C121.172,35.479 121.112,35.301 121.031,35.133C120.951,34.965 120.849,34.823 120.727,34.707C120.605,34.59 120.459,34.547 120.29,34.577C120.05,34.619 119.891,34.894 119.813,35.402C119.736,35.911 119.758,36.51 119.88,37.201C119.972,37.723 120.12,38.275 120.325,38.857C120.529,39.439 120.806,40.02 121.156,40.598Z"/>
                <path d="M123.551,53.636C123.54,53.809 123.537,53.983 123.54,54.155C123.544,54.327 123.555,54.499 123.572,54.67C123.626,55.183 123.752,55.663 123.95,56.11C124.148,56.558 124.411,56.941 124.739,57.259C125.068,57.578 125.46,57.814 125.915,57.968C126.37,58.122 126.876,58.17 127.431,58.112C129.297,57.917 131.033,57.095 132.639,55.646C134.244,54.196 135.765,52.007 137.202,49.077L137.995,49.642C137.219,51.308 136.402,52.729 135.546,53.905C134.69,55.082 133.816,56.055 132.924,56.825C132.032,57.595 131.139,58.178 130.245,58.574C129.35,58.97 128.482,59.212 127.642,59.3C127.029,59.364 126.372,59.346 125.671,59.246C124.969,59.147 124.309,58.928 123.69,58.589C123.072,58.251 122.539,57.766 122.091,57.136C121.644,56.506 121.368,55.692 121.264,54.695C121.152,53.627 121.226,52.579 121.486,51.551C121.746,50.523 122.123,49.551 122.618,48.635C123.113,47.719 123.701,46.869 124.382,46.085C125.063,45.301 125.766,44.62 126.491,44.04C127.215,43.46 127.933,42.993 128.645,42.638C129.356,42.282 129.997,42.075 130.567,42.016C130.937,41.977 131.321,41.994 131.717,42.068C132.114,42.142 132.478,42.284 132.809,42.494C133.141,42.704 133.424,42.999 133.658,43.378C133.892,43.756 134.038,44.224 134.096,44.779C134.175,45.534 134.074,46.261 133.794,46.96C133.515,47.659 133.112,48.32 132.587,48.944C132.061,49.567 131.438,50.144 130.715,50.673C129.993,51.202 129.228,51.667 128.42,52.068C127.612,52.47 126.791,52.807 125.955,53.082C125.12,53.356 124.318,53.541 123.551,53.636ZM123.626,52.699C124.57,52.499 125.446,52.206 126.256,51.819C127.065,51.432 127.796,50.985 128.448,50.478C129.101,49.97 129.675,49.432 130.17,48.861C130.665,48.291 131.07,47.723 131.385,47.158C131.7,46.592 131.932,46.056 132.081,45.551C132.23,45.046 132.284,44.601 132.244,44.216C132.204,43.832 132.069,43.536 131.838,43.33C131.608,43.124 131.35,43.035 131.065,43.065C130.439,43.131 129.757,43.429 129.02,43.959C128.284,44.49 127.565,45.191 126.864,46.064C126.163,46.936 125.523,47.943 124.944,49.083C124.364,50.224 123.925,51.429 123.626,52.699Z"/>
                <path d="M143.36,39.745C143.299,39.879 143.217,40.026 143.115,40.185C143.013,40.344 142.916,40.524 142.824,40.725C142.732,40.926 142.657,41.158 142.599,41.422C142.541,41.685 142.526,41.995 142.554,42.352C142.578,42.652 142.685,43.053 142.876,43.555C143.066,44.057 143.273,44.633 143.497,45.284C143.721,45.934 143.939,46.642 144.151,47.409C144.362,48.175 144.501,48.972 144.566,49.8C144.663,51.014 144.583,52.098 144.328,53.052C144.073,54.006 143.701,54.833 143.21,55.533C144.276,54.845 145.301,53.898 146.283,52.692C147.265,51.487 148.23,49.977 149.178,48.163L149.957,48.748C149.424,49.811 148.807,50.869 148.107,51.923C147.408,52.977 146.625,53.937 145.76,54.803C144.895,55.669 143.946,56.39 142.914,56.968C141.883,57.545 140.767,57.881 139.568,57.976C138.497,58.061 137.574,57.879 136.798,57.431C136.023,56.982 135.509,56.258 135.257,55.257L136.017,55.046C136.023,55.132 136.074,55.268 136.167,55.455C136.261,55.641 136.401,55.821 136.587,55.993C136.773,56.165 137.018,56.311 137.322,56.43C137.626,56.55 137.992,56.593 138.421,56.559C138.992,56.513 139.488,56.341 139.91,56.042C140.332,55.743 140.69,55.366 140.984,54.912C141.279,54.457 141.518,53.946 141.703,53.378C141.888,52.811 142.025,52.229 142.115,51.632C142.204,51.036 142.255,50.457 142.268,49.896C142.281,49.335 142.269,48.826 142.233,48.369C142.197,47.912 142.139,47.406 142.059,46.852C141.979,46.298 141.898,45.77 141.815,45.266C141.732,44.763 141.658,44.323 141.592,43.948C141.526,43.572 141.489,43.327 141.48,43.213L141.477,43.17C141.307,43.385 141.109,43.695 140.882,44.101C140.656,44.507 140.414,44.95 140.158,45.43C139.901,45.91 139.645,46.397 139.39,46.891C139.134,47.386 138.904,47.835 138.699,48.239C138.494,48.643 138.327,48.976 138.196,49.238C138.066,49.5 138.002,49.638 138.003,49.652L137.184,49.113C137.198,49.098 137.352,48.777 137.647,48.15C137.942,47.523 138.335,46.727 138.826,45.761C139.317,44.796 139.875,43.724 140.5,42.547C141.126,41.37 141.775,40.223 142.448,39.106L143.36,39.745Z"/>
                <path d="M152.999,38.236C153.129,37.985 153.36,37.549 153.692,36.929C154.024,36.308 154.417,35.62 154.872,34.864C155.326,34.108 155.822,33.346 156.362,32.579C156.902,31.811 157.436,31.154 157.966,30.609L158.963,31.137C158.403,32.185 157.831,33.295 157.249,34.467C156.667,35.639 156.094,36.85 155.53,38.099L162.524,37.722L162.155,38.861L155.011,39.246C154.437,40.568 153.902,41.88 153.405,43.184C152.909,44.487 152.478,45.73 152.111,46.911C151.744,48.093 151.467,49.194 151.278,50.216C151.089,51.237 151.015,52.12 151.055,52.863C151.105,53.793 151.356,54.45 151.807,54.835C152.258,55.219 152.798,55.394 153.427,55.36C153.985,55.33 154.548,55.131 155.116,54.764C155.685,54.396 156.237,53.939 156.775,53.394C157.312,52.849 157.818,52.255 158.292,51.613C158.767,50.97 159.186,50.367 159.55,49.802C159.914,49.237 160.214,48.744 160.449,48.323C160.685,47.901 160.828,47.639 160.88,47.536L161.706,48.094C161.25,48.95 160.733,49.86 160.154,50.824C159.575,51.787 158.924,52.687 158.201,53.522C157.479,54.357 156.681,55.059 155.809,55.63C154.936,56.201 153.977,56.514 152.933,56.57C152.29,56.605 151.722,56.521 151.231,56.318C150.739,56.115 150.318,55.819 149.967,55.429C149.616,55.039 149.343,54.569 149.149,54.021C148.954,53.472 148.839,52.868 148.804,52.21C148.781,51.781 148.816,51.17 148.909,50.376C149.003,49.582 149.185,48.636 149.455,47.539C149.726,46.441 150.101,45.205 150.579,43.831C151.057,42.457 151.676,40.975 152.437,39.385L148.875,39.577L149.244,38.438L152.999,38.236Z"/>
                <path d="M177.131,42.83C178.12,42.72 179.081,42.596 180.012,42.458C180.944,42.319 181.847,42.159 182.722,41.977C182.802,40.216 183.104,38.527 183.628,36.911C184.152,35.295 184.832,33.791 185.67,32.399C186.508,31.007 187.467,29.744 188.547,28.611C189.626,27.477 190.759,26.509 191.945,25.706C193.131,24.902 194.337,24.282 195.564,23.844C196.79,23.406 197.97,23.19 199.101,23.196C200.619,23.203 201.774,23.528 202.566,24.169C203.358,24.81 203.75,25.761 203.744,27.022C203.737,28.497 203.3,29.992 202.433,31.505C201.566,33.019 200.337,34.471 198.748,35.859C197.158,37.248 195.239,38.52 192.992,39.676C190.745,40.832 188.237,41.783 185.469,42.528C185.464,43.43 185.571,44.294 185.789,45.118C186.007,45.943 186.336,46.675 186.777,47.315C187.218,47.954 187.763,48.462 188.413,48.838C189.063,49.213 189.817,49.403 190.677,49.408C191.679,49.413 192.726,49.182 193.817,48.714C194.908,48.247 195.978,47.651 197.027,46.926C198.076,46.201 199.062,45.393 199.983,44.502C200.904,43.612 201.703,42.738 202.381,41.882C203.649,40.27 204.672,39.065 205.45,38.267C206.227,37.469 206.644,37.041 206.702,36.984L207.471,37.804C206.147,39.072 204.977,40.427 203.96,41.869C202.943,43.31 202.008,44.77 201.156,46.248C200.303,47.726 199.501,49.201 198.749,50.673C197.996,52.144 197.223,53.551 196.429,54.894C195.634,56.236 194.786,57.481 193.885,58.63C192.984,59.778 191.959,60.772 190.809,61.612C189.659,62.451 188.356,63.107 186.9,63.579C185.443,64.052 183.763,64.283 181.858,64.274C180.082,64.265 178.482,64.046 177.059,63.616C175.636,63.186 174.426,62.593 173.427,61.836C172.428,61.079 171.663,60.187 171.131,59.16C170.599,58.134 170.336,57.019 170.342,55.816C170.348,54.541 170.572,53.443 171.013,52.521C171.455,51.599 172.024,50.843 172.722,50.252C173.42,49.661 174.21,49.228 175.092,48.954C175.974,48.679 176.859,48.544 177.747,48.548C178.836,48.553 179.766,48.73 180.538,49.078C181.309,49.425 181.973,49.837 182.53,50.312L181.902,51.19C181.731,51.046 181.528,50.887 181.292,50.714C181.057,50.541 180.785,50.379 180.478,50.227C180.171,50.075 179.835,49.948 179.47,49.846C179.106,49.744 178.716,49.692 178.3,49.689C177.484,49.685 176.738,49.832 176.064,50.129C175.389,50.427 174.81,50.85 174.328,51.399C173.845,51.948 173.473,52.598 173.211,53.349C172.95,54.099 172.817,54.926 172.812,55.828C172.806,57.017 173.055,58.067 173.559,58.979C174.063,59.891 174.725,60.654 175.546,61.267C176.366,61.879 177.295,62.346 178.332,62.666C179.369,62.987 180.424,63.149 181.498,63.155C183.117,63.163 184.525,62.937 185.723,62.478C186.922,62.018 187.992,61.397 188.934,60.614C189.876,59.831 190.726,58.911 191.483,57.855C192.24,56.799 192.98,55.675 193.702,54.482C194.424,53.29 195.168,52.069 195.933,50.82C196.699,49.57 197.571,48.347 198.551,47.148C196.984,48.43 195.45,49.407 193.95,50.079C192.45,50.752 190.998,51.085 189.594,51.078C188.72,51.074 187.876,50.908 187.061,50.582C186.247,50.256 185.522,49.765 184.888,49.11C184.254,48.455 183.739,47.636 183.343,46.653C182.947,45.67 182.73,44.512 182.694,43.18C181.82,43.362 180.924,43.515 180.006,43.639C179.089,43.764 178.157,43.866 177.212,43.948L177.131,42.83ZM199.783,24.424C198.68,24.418 197.576,24.627 196.471,25.052C195.366,25.476 194.306,26.072 193.293,26.84C192.279,27.609 191.326,28.521 190.432,29.576C189.539,30.632 188.749,31.784 188.062,33.034C187.376,34.284 186.811,35.61 186.367,37.011C185.923,38.412 185.64,39.836 185.518,41.282C188.43,40.48 190.956,39.487 193.096,38.302C195.236,37.116 197.011,35.868 198.421,34.558C199.831,33.247 200.884,31.935 201.578,30.62C202.272,29.306 202.622,28.105 202.627,27.016C202.631,26.171 202.395,25.529 201.917,25.09C201.439,24.65 200.728,24.428 199.783,24.424Z"/>
                <path d="M217.018,48.314C216.791,48.621 216.522,49.038 216.209,49.564C215.896,50.09 215.535,50.657 215.126,51.266C214.716,51.874 214.268,52.492 213.779,53.119C213.29,53.747 212.761,54.308 212.191,54.803C211.621,55.298 211.008,55.699 210.352,56.004C209.696,56.31 209.003,56.45 208.273,56.423C207.872,56.409 207.495,56.334 207.142,56.199C206.788,56.065 206.48,55.863 206.218,55.596C205.955,55.328 205.752,55.002 205.609,54.617C205.465,54.232 205.403,53.782 205.421,53.266C205.447,52.565 205.613,51.837 205.92,51.081C206.227,50.325 206.58,49.597 206.978,48.894C207.376,48.192 207.772,47.551 208.166,46.971C208.56,46.39 208.849,45.924 209.034,45.573C209.219,45.221 209.316,44.916 209.325,44.659C209.332,44.473 209.277,44.306 209.161,44.158C209.044,44.011 208.899,43.866 208.725,43.723C208.551,43.581 208.37,43.431 208.182,43.273C207.995,43.116 207.84,42.928 207.719,42.708C207.341,43.268 206.955,43.834 206.561,44.408C206.214,44.897 205.835,45.445 205.426,46.054C205.017,46.662 204.623,47.261 204.243,47.849L203.492,47.22L208.348,40.194L208.959,40.539C208.928,40.624 208.876,40.758 208.805,40.942C208.734,41.126 208.694,41.325 208.686,41.54C208.681,41.697 208.7,41.852 208.745,42.004C208.789,42.156 208.888,42.299 209.041,42.434C209.595,42.97 210.031,43.384 210.35,43.675C210.669,43.966 210.901,44.197 211.045,44.367C211.189,44.537 211.277,44.676 211.309,44.785C211.341,44.893 211.354,45.034 211.348,45.205C211.341,45.377 211.305,45.584 211.239,45.825C211.173,46.066 211.066,46.356 210.917,46.695C210.769,47.033 210.568,47.431 210.315,47.887C210.062,48.344 209.745,48.873 209.365,49.476C209.136,49.84 208.912,50.208 208.69,50.58C208.469,50.952 208.269,51.328 208.09,51.708C207.911,52.089 207.765,52.47 207.651,52.853C207.536,53.236 207.473,53.606 207.46,53.964C207.45,54.236 207.481,54.456 207.554,54.623C207.627,54.791 207.726,54.92 207.852,55.01C207.977,55.101 208.115,55.163 208.264,55.197C208.413,55.232 208.559,55.251 208.703,55.256C209.175,55.274 209.649,55.151 210.124,54.889C210.599,54.627 211.071,54.282 211.538,53.855C212.005,53.427 212.46,52.939 212.903,52.389C213.345,51.839 213.771,51.277 214.179,50.705C214.586,50.132 214.965,49.583 215.314,49.058C215.662,48.534 215.973,48.076 216.245,47.684L217.018,48.314Z"/>
                <path d="M217.705,50.869C217.667,51.039 217.636,51.209 217.613,51.38C217.589,51.551 217.573,51.722 217.563,51.894C217.535,52.409 217.584,52.903 217.709,53.376C217.834,53.849 218.033,54.268 218.308,54.634C218.582,55.001 218.932,55.296 219.357,55.52C219.782,55.744 220.274,55.871 220.832,55.901C222.705,56.002 224.549,55.464 226.363,54.286C228.176,53.107 230.023,51.185 231.904,48.519L232.598,49.202C231.569,50.724 230.539,51.998 229.508,53.025C228.477,54.052 227.46,54.876 226.458,55.496C225.457,56.116 224.483,56.551 223.537,56.8C222.591,57.05 221.696,57.153 220.852,57.107C220.237,57.073 219.591,56.952 218.914,56.744C218.237,56.535 217.619,56.214 217.062,55.783C216.504,55.351 216.054,54.788 215.712,54.096C215.369,53.403 215.225,52.556 215.279,51.555C215.338,50.482 215.576,49.459 215.994,48.485C216.413,47.51 216.939,46.61 217.572,45.784C218.205,44.957 218.919,44.211 219.716,43.544C220.512,42.877 221.313,42.315 222.12,41.856C222.927,41.398 223.709,41.049 224.468,40.811C225.227,40.572 225.892,40.468 226.464,40.499C226.836,40.52 227.212,40.597 227.592,40.733C227.972,40.868 228.309,41.066 228.603,41.325C228.898,41.585 229.131,41.921 229.302,42.332C229.473,42.742 229.544,43.227 229.514,43.785C229.473,44.543 229.259,45.245 228.872,45.891C228.486,46.537 227.984,47.126 227.367,47.659C226.75,48.193 226.043,48.663 225.247,49.072C224.45,49.481 223.621,49.82 222.76,50.088C221.899,50.357 221.035,50.562 220.167,50.701C219.299,50.84 218.478,50.896 217.705,50.869ZM217.926,49.956C218.89,49.907 219.802,49.756 220.662,49.501C221.522,49.247 222.314,48.92 223.039,48.522C223.763,48.124 224.415,47.682 224.993,47.197C225.572,46.712 226.061,46.215 226.462,45.706C226.862,45.197 227.176,44.705 227.403,44.23C227.629,43.754 227.753,43.323 227.774,42.937C227.795,42.551 227.708,42.238 227.513,41.998C227.318,41.758 227.077,41.63 226.791,41.615C226.162,41.58 225.442,41.767 224.631,42.175C223.82,42.583 222.999,43.163 222.17,43.914C221.34,44.665 220.549,45.558 219.798,46.593C219.046,47.628 218.422,48.749 217.926,49.956Z"/>
                <path d="M233.199,51.739C233.158,51.908 233.124,52.078 233.097,52.249C233.07,52.419 233.051,52.59 233.038,52.761C233.001,53.276 233.041,53.77 233.157,54.246C233.274,54.721 233.465,55.144 233.733,55.515C234,55.886 234.345,56.188 234.766,56.419C235.187,56.651 235.676,56.787 236.234,56.827C238.105,56.963 239.958,56.458 241.793,55.313C243.628,54.167 245.51,52.279 247.438,49.647L248.12,50.342C247.063,51.846 246.01,53.101 244.961,54.109C243.911,55.118 242.88,55.923 241.867,56.524C240.854,57.126 239.872,57.543 238.922,57.776C237.972,58.008 237.075,58.094 236.232,58.033C235.618,57.989 234.974,57.856 234.301,57.635C233.628,57.414 233.016,57.082 232.467,56.64C231.917,56.199 231.477,55.628 231.147,54.929C230.817,54.231 230.689,53.381 230.761,52.381C230.839,51.31 231.096,50.291 231.532,49.324C231.968,48.358 232.51,47.467 233.158,46.653C233.805,45.838 234.534,45.104 235.342,44.452C236.15,43.8 236.962,43.252 237.776,42.808C238.591,42.365 239.38,42.03 240.143,41.806C240.906,41.581 241.573,41.489 242.145,41.53C242.516,41.557 242.891,41.642 243.268,41.784C243.646,41.926 243.979,42.13 244.269,42.395C244.558,42.66 244.785,43 244.949,43.414C245.113,43.828 245.174,44.313 245.134,44.87C245.079,45.627 244.853,46.325 244.455,46.964C244.057,47.603 243.544,48.184 242.918,48.706C242.291,49.227 241.576,49.685 240.772,50.08C239.968,50.474 239.133,50.797 238.267,51.051C237.402,51.304 236.534,51.492 235.663,51.616C234.793,51.74 233.971,51.781 233.199,51.739ZM233.437,50.83C234.401,50.799 235.316,50.665 236.18,50.426C237.045,50.187 237.843,49.875 238.574,49.49C239.306,49.105 239.965,48.675 240.553,48.2C241.14,47.726 241.638,47.238 242.048,46.736C242.458,46.235 242.78,45.748 243.015,45.277C243.25,44.806 243.382,44.377 243.41,43.992C243.438,43.606 243.356,43.291 243.166,43.048C242.975,42.804 242.737,42.672 242.451,42.651C241.823,42.606 241.099,42.78 240.281,43.173C239.463,43.566 238.632,44.13 237.789,44.866C236.946,45.602 236.139,46.481 235.369,47.502C234.598,48.523 233.954,49.633 233.437,50.83Z"/>
                <path d="M265.532,48.143C265.475,48.756 265.311,49.37 265.038,49.985C264.765,50.6 264.435,51.21 264.048,51.814C263.661,52.418 263.254,53.01 262.826,53.589C262.399,54.167 261.995,54.727 261.614,55.267C261.233,55.807 260.911,56.327 260.649,56.828C260.387,57.329 260.236,57.793 260.196,58.221C260.166,58.549 260.217,58.777 260.349,58.904C260.481,59.031 260.632,59.103 260.803,59.119C261.345,59.169 261.976,58.958 262.696,58.485C263.416,58.012 264.159,57.402 264.927,56.653C265.694,55.904 266.464,55.084 267.237,54.192C268.01,53.3 268.714,52.451 269.35,51.647L270.065,52.318C269.935,52.478 269.696,52.798 269.35,53.276C269.004,53.755 268.579,54.298 268.077,54.906C267.575,55.514 267.016,56.145 266.402,56.8C265.787,57.456 265.139,58.05 264.456,58.584C263.774,59.117 263.083,59.546 262.384,59.869C261.685,60.193 261.001,60.324 260.331,60.262C259.946,60.226 259.602,60.129 259.3,59.972C258.998,59.814 258.747,59.611 258.548,59.363C258.348,59.114 258.198,58.83 258.098,58.512C257.998,58.193 257.964,57.863 257.996,57.521C258.047,56.964 258.228,56.373 258.538,55.748C258.847,55.122 259.219,54.484 259.654,53.834C260.088,53.184 260.558,52.533 261.064,51.882C261.571,51.232 262.038,50.61 262.467,50.017C262.896,49.424 263.26,48.871 263.559,48.359C263.859,47.848 264.026,47.399 264.062,47.014C264.103,46.572 264.019,46.19 263.812,45.869C263.604,45.548 263.287,45.367 262.859,45.328C262.402,45.285 261.857,45.425 261.223,45.748C260.589,46.07 259.868,46.561 259.059,47.219C258.25,47.878 257.357,48.698 256.382,49.679C255.406,50.66 254.342,51.781 253.189,53.04C252.532,53.77 251.891,54.473 251.268,55.149C250.996,55.44 250.724,55.739 250.451,56.044C250.178,56.35 249.906,56.652 249.634,56.95C249.361,57.249 249.105,57.534 248.864,57.807C248.623,58.079 248.407,58.314 248.216,58.513L246.405,57.568L249.227,54.356C249.628,53.904 250.04,53.417 250.463,52.895C250.885,52.373 251.306,51.833 251.724,51.275C252.143,50.717 252.544,50.154 252.927,49.585C253.311,49.017 253.672,48.46 254.01,47.916C254.503,47.099 254.854,46.416 255.063,45.867C255.272,45.318 255.392,44.873 255.424,44.53C255.46,44.145 255.412,43.886 255.281,43.751C255.149,43.617 254.955,43.538 254.698,43.514C254.428,43.489 254.104,43.599 253.729,43.845C253.354,44.09 252.961,44.414 252.55,44.814C252.139,45.215 251.719,45.672 251.29,46.186C250.861,46.7 250.45,47.212 250.058,47.722C249.665,48.233 249.297,48.716 248.952,49.173C248.608,49.631 248.322,50 248.094,50.281L247.38,49.61C248.213,48.537 248.969,47.553 249.649,46.66C250.329,45.766 250.975,45.003 251.588,44.369C252.2,43.735 252.784,43.254 253.34,42.924C253.896,42.594 254.466,42.457 255.05,42.511C255.364,42.54 255.661,42.632 255.942,42.788C256.222,42.943 256.461,43.156 256.659,43.426C256.857,43.696 257.004,44.015 257.099,44.384C257.194,44.752 257.22,45.172 257.177,45.642C257.142,46.013 257.064,46.394 256.941,46.786C257.626,46.231 258.257,45.778 258.836,45.429C259.415,45.08 259.944,44.809 260.422,44.616C260.9,44.423 261.336,44.295 261.731,44.231C262.125,44.166 262.479,44.149 262.793,44.178C263.064,44.203 263.373,44.282 263.72,44.415C264.067,44.548 264.385,44.764 264.674,45.064C264.963,45.365 265.195,45.764 265.372,46.262C265.549,46.76 265.602,47.387 265.532,48.143Z"/>
                <path d="M275.941,46.089C274.99,47.235 274.166,48.335 273.47,49.388C272.775,50.44 272.188,51.423 271.71,52.334C271.232,53.246 270.863,54.084 270.604,54.847C270.344,55.61 270.182,56.277 270.118,56.846C269.97,58.155 270.273,58.853 271.027,58.938C271.483,58.99 272.031,58.821 272.674,58.433C273.316,58.044 273.985,57.507 274.683,56.822C275.38,56.137 276.076,55.337 276.771,54.421C277.466,53.505 278.093,52.545 278.653,51.542L278.672,51.566C279.201,50.588 279.767,49.635 280.369,48.709C280.971,47.783 281.574,46.943 282.178,46.189L283.071,46.896C282.754,47.537 282.37,48.316 281.92,49.231C281.471,50.145 281.034,51.109 280.61,52.12C280.185,53.131 279.804,54.144 279.466,55.158C279.128,56.172 278.911,57.099 278.816,57.939C278.789,58.181 278.773,58.413 278.769,58.636C278.766,58.859 278.783,59.059 278.82,59.236C278.858,59.414 278.928,59.558 279.031,59.671C279.133,59.784 279.27,59.849 279.441,59.869C279.925,59.924 280.5,59.772 281.168,59.416C281.835,59.059 282.517,58.577 283.212,57.971C283.908,57.365 284.583,56.685 285.238,55.93C285.893,55.176 286.456,54.436 286.927,53.711C286.477,52.593 286.327,51.365 286.479,50.028C286.563,49.288 286.701,48.669 286.894,48.172C287.087,47.675 287.302,47.277 287.537,46.98C287.773,46.682 288.019,46.479 288.276,46.372C288.534,46.264 288.762,46.221 288.961,46.244C289.331,46.286 289.634,46.507 289.87,46.909C290.105,47.31 290.169,47.988 290.061,48.941C289.984,49.624 289.775,50.39 289.434,51.238C289.093,52.086 288.656,52.955 288.122,53.846C288.337,54.245 288.616,54.579 288.96,54.849C289.304,55.119 289.725,55.289 290.221,55.359L289.913,56.362C289.404,56.276 288.949,56.098 288.547,55.829C288.145,55.56 287.801,55.222 287.515,54.815C286.944,55.659 286.301,56.469 285.586,57.245C284.871,58.022 284.125,58.698 283.346,59.273C282.567,59.848 281.771,60.291 280.958,60.603C280.144,60.914 279.346,61.026 278.563,60.937C278.236,60.9 277.933,60.801 277.656,60.64C277.379,60.479 277.141,60.257 276.942,59.975C276.743,59.693 276.603,59.346 276.52,58.933C276.437,58.52 276.426,58.043 276.487,57.502C276.509,57.303 276.541,57.09 276.581,56.864C276.621,56.638 276.676,56.406 276.746,56.169C276.261,56.763 275.77,57.313 275.273,57.819C274.776,58.325 274.277,58.751 273.777,59.098C273.276,59.445 272.767,59.704 272.251,59.877C271.734,60.049 271.219,60.106 270.707,60.048C270.152,59.985 269.686,59.835 269.309,59.598C268.932,59.36 268.636,59.053 268.419,58.675C268.202,58.298 268.06,57.867 267.992,57.384C267.924,56.9 267.922,56.381 267.985,55.826C268.096,54.844 268.37,53.859 268.806,52.87C269.242,51.882 269.786,50.927 270.438,50.007C271.09,49.086 271.817,48.231 272.62,47.443C273.423,46.654 274.246,45.969 275.091,45.387L275.941,46.089ZM287.672,52.476C288.015,51.866 288.295,51.242 288.511,50.604C288.727,49.965 288.871,49.333 288.942,48.706C288.995,48.237 288.997,47.898 288.949,47.691C288.9,47.484 288.856,47.363 288.817,47.33C288.802,47.328 288.745,47.362 288.643,47.429C288.542,47.497 288.422,47.631 288.284,47.832C288.146,48.033 288.009,48.316 287.874,48.683C287.739,49.05 287.638,49.532 287.57,50.129C287.523,50.542 287.509,50.951 287.528,51.357C287.547,51.763 287.595,52.136 287.672,52.476Z"/>
                <path d="M301.754,44.404C301.718,44.688 301.609,44.974 301.428,45.261C301.247,45.548 301.031,45.799 300.78,46.012C300.529,46.226 300.259,46.393 299.969,46.515C299.679,46.637 299.399,46.681 299.129,46.646C298.888,46.615 298.714,46.503 298.609,46.309C298.504,46.115 298.468,45.89 298.5,45.635C298.529,45.407 298.606,45.143 298.731,44.841C298.856,44.539 299.022,44.261 299.228,44.006C299.434,43.75 299.67,43.539 299.937,43.37C300.204,43.202 300.494,43.138 300.806,43.178C301.105,43.216 301.346,43.363 301.53,43.617C301.714,43.872 301.789,44.134 301.754,44.404ZM297.165,48.626C296.934,48.972 296.612,49.426 296.201,49.987C295.79,50.548 295.347,51.163 294.872,51.832C294.397,52.5 293.91,53.203 293.412,53.941C292.913,54.679 292.457,55.4 292.042,56.105C291.627,56.81 291.278,57.477 290.996,58.105C290.714,58.733 290.544,59.275 290.486,59.729C290.433,60.142 290.482,60.433 290.634,60.604C290.785,60.775 291.017,60.88 291.33,60.92C291.912,60.995 292.505,60.875 293.108,60.562C293.711,60.249 294.326,59.819 294.952,59.271C295.577,58.722 296.204,58.084 296.831,57.355C297.458,56.627 298.087,55.891 298.716,55.148L299.407,55.843C298.9,56.529 298.334,57.258 297.709,58.031C297.083,58.803 296.405,59.507 295.674,60.143C294.943,60.778 294.164,61.282 293.337,61.653C292.51,62.024 291.642,62.151 290.733,62.035C289.88,61.926 289.259,61.587 288.87,61.018C288.481,60.448 288.338,59.759 288.441,58.949C288.562,57.997 288.91,57.03 289.482,56.049C290.055,55.069 290.737,54.112 291.527,53.181C292.317,52.249 293.159,51.364 294.053,50.525C294.947,49.686 295.77,48.925 296.521,48.241L297.165,48.626Z"/>
                <path d="M311.248,51.788C311.365,51.573 311.44,51.338 311.476,51.082C311.539,50.628 311.407,50.245 311.082,49.933C310.756,49.62 310.203,49.41 309.423,49.302C308.785,49.214 308.123,49.263 307.44,49.451C306.756,49.638 306.083,49.932 305.42,50.332C304.757,50.732 304.121,51.229 303.511,51.824C302.901,52.42 302.354,53.081 301.87,53.81C301.386,54.538 300.974,55.323 300.633,56.165C300.293,57.007 300.062,57.868 299.94,58.748C299.842,59.457 299.836,60.071 299.924,60.589C300.011,61.108 300.175,61.542 300.416,61.894C300.656,62.245 300.966,62.516 301.345,62.705C301.723,62.895 302.161,63.024 302.657,63.093C303.636,63.228 304.617,63.14 305.6,62.828C306.583,62.515 307.538,62.065 308.466,61.478C309.393,60.89 310.267,60.213 311.089,59.444C311.911,58.676 312.65,57.91 313.305,57.148L314.01,57.853C313.065,59.038 312.093,60.057 311.093,60.909C310.093,61.761 309.094,62.45 308.095,62.978C307.097,63.505 306.107,63.867 305.126,64.063C304.144,64.26 303.207,64.297 302.313,64.173C301.603,64.075 300.941,63.875 300.324,63.573C299.708,63.271 299.185,62.869 298.756,62.369C298.326,61.869 298.013,61.258 297.816,60.536C297.62,59.815 297.586,58.986 297.716,58.05C297.869,56.943 298.173,55.919 298.629,54.977C299.084,54.035 299.636,53.183 300.284,52.419C300.932,51.656 301.65,50.985 302.438,50.407C303.227,49.829 304.033,49.359 304.857,48.996C305.68,48.632 306.496,48.38 307.304,48.239C308.111,48.098 308.855,48.074 309.536,48.168C310.232,48.264 310.786,48.439 311.199,48.691C311.613,48.943 311.928,49.222 312.146,49.527C312.365,49.832 312.499,50.139 312.55,50.45C312.601,50.761 312.612,51.023 312.582,51.235C312.535,51.576 312.436,51.931 312.283,52.3C312.131,52.67 311.944,53.002 311.723,53.296C311.501,53.591 311.244,53.827 310.953,54.003C310.661,54.18 310.359,54.246 310.047,54.203C309.734,54.16 309.479,54.02 309.28,53.783C309.082,53.546 309.004,53.271 309.047,52.959C309.049,52.945 309.072,52.861 309.115,52.708C309.158,52.555 309.248,52.397 309.386,52.236C309.524,52.074 309.72,51.938 309.974,51.829C310.227,51.719 310.567,51.694 310.993,51.753L311.248,51.788Z"/>
                <path d="M316.124,57.182C317.03,56.278 317.952,55.459 318.89,54.726C319.828,53.993 320.755,53.377 321.672,52.88C322.588,52.382 323.473,52.022 324.326,51.797C325.179,51.572 325.981,51.518 326.731,51.632C327.241,51.71 327.65,51.853 327.959,52.059C328.268,52.266 328.499,52.508 328.652,52.785C328.805,53.062 328.898,53.355 328.931,53.664C328.963,53.973 328.957,54.276 328.911,54.574C328.833,55.084 328.643,55.616 328.341,56.171C328.039,56.726 327.679,57.298 327.263,57.886C326.847,58.475 326.404,59.073 325.935,59.683C325.465,60.292 325.022,60.89 324.606,61.479C324.19,62.067 323.83,62.646 323.525,63.215C323.221,63.785 323.029,64.331 322.948,64.855C322.899,65.181 322.927,65.493 323.033,65.792C323.14,66.091 323.384,66.269 323.766,66.328C324.219,66.397 324.757,66.244 325.38,65.868C326.002,65.492 326.655,64.991 327.338,64.364C328.021,63.736 328.716,63.028 329.423,62.237C330.131,61.447 330.797,60.672 331.42,59.913L332.093,60.624C331.905,60.813 331.64,61.124 331.299,61.557C330.957,61.99 330.561,62.473 330.11,63.005C329.659,63.538 329.163,64.081 328.622,64.636C328.081,65.191 327.519,65.688 326.938,66.128C326.356,66.568 325.764,66.912 325.16,67.16C324.557,67.409 323.973,67.489 323.406,67.403C323.038,67.346 322.677,67.248 322.322,67.106C321.966,66.965 321.658,66.759 321.395,66.487C321.132,66.215 320.939,65.87 320.814,65.452C320.69,65.035 320.673,64.529 320.764,63.934C320.87,63.24 321.094,62.554 321.437,61.875C321.78,61.195 322.179,60.532 322.633,59.884C323.087,59.236 323.57,58.615 324.081,58.019C324.592,57.423 325.066,56.862 325.501,56.334C325.937,55.807 326.308,55.324 326.614,54.885C326.92,54.447 327.098,54.065 327.148,53.739C327.237,53.159 326.998,52.825 326.432,52.738C325.624,52.615 324.731,52.75 323.751,53.143C322.77,53.537 321.762,54.089 320.726,54.8C319.69,55.511 318.653,56.327 317.613,57.247C316.574,58.168 315.592,59.093 314.668,60.024L310.511,65.604L308.695,64.544C311.093,60.897 313.416,57.286 315.666,53.711C317.915,50.136 320.203,46.613 322.53,43.144C322.888,42.605 323.3,42.023 323.765,41.398C324.23,40.774 324.723,40.154 325.244,39.538C325.766,38.922 326.315,38.34 326.892,37.791C327.469,37.241 328.049,36.765 328.632,36.361C329.215,35.958 329.802,35.653 330.391,35.446C330.981,35.239 331.551,35.178 332.104,35.262C332.726,35.358 333.185,35.605 333.479,36.005C333.773,36.405 333.871,36.923 333.773,37.561C333.672,38.226 333.379,38.953 332.896,39.741C332.414,40.529 331.803,41.345 331.066,42.189C330.328,43.032 329.491,43.89 328.554,44.761C327.616,45.631 326.637,46.489 325.617,47.333C324.597,48.176 323.571,48.987 322.54,49.763C321.508,50.54 320.522,51.255 319.582,51.908L316.124,57.182ZM332.038,36.404C331.4,36.307 330.779,36.462 330.173,36.869C329.568,37.276 328.868,37.991 328.074,39.015C327.28,40.038 326.342,41.387 325.26,43.061C324.178,44.736 322.856,46.794 321.295,49.236C323.084,47.959 324.671,46.699 326.057,45.454C327.442,44.21 328.614,43.06 329.573,42.004C330.531,40.948 331.272,40.014 331.794,39.203C332.317,38.392 332.61,37.774 332.675,37.349C332.714,37.094 332.674,36.882 332.556,36.711C332.437,36.541 332.264,36.439 332.038,36.404Z"/>
            </g>
        </g>
    </g>
</svg>
